<svg viewBox="0 0 1024 1024" width="64" height="64" version="1.1" xmlns="http://www.w3.org/2000/svg" xmlns:xlink="http://www.w3.org/1999/xlink">
  <path fill="#333" d="M713.33156115 804.78125907H182.2239314A91.51473339 91.51473339 0 0 1 90.77429199 713.33161884V182.22398907A91.51473339 91.51473339 0 0 1 182.2239314 90.77434967H655.89064731a32.45223752 32.45223752 0 0 1 0 64.90365189H182.2239314a26.61025836 26.61025836 0 0 0-26.54598753 26.54598751v531.04335975a26.61025836 26.61025836 0 0 0 26.54598753 26.54516436h531.04335974a26.61025836 26.61025836 0 0 0 26.54516436-26.54598833V557.30297353a32.45223752 32.45223752 0 0 1 64.90447587 0v155.96355131a91.51473339 91.51473339 0 0 1-91.38537022 91.51473423z"></path>
  <path fill="#333" d="M901.42270481 933.875H332.15104553a32.45223752 32.45223752 0 0 1 0-64.90447586h536.81942093v-316.40622776a32.45223752 32.45223752 0 0 1 64.90447586 0v348.8584661A32.45223752 32.45223752 0 0 1 901.42270481 933.875z m0-843.74994232a32.58160153 32.58160153 0 0 0-22.97570637 9.47570718L465.39926645 512.64932082a32.45223752 32.45223752 0 0 0 45.95141272 45.95141273L924.39923514 145.55382553A32.45223752 32.45223752 0 0 0 901.42270481 90.12505767z"></path>
  <path fill="#333" d="M306.64408917 319.62504202a32.45223752 32.45223752 0 0 0-22.97570636 55.36284989l183.54857163 183.54857162a32.51650754 32.51650754 0 0 0 45.95141272 0.06427002 32.45223752 32.45223752 0 0 0 0-45.8871427L329.55552552 329.10074922a32.06249753 32.06249753 0 0 0-22.91143634-9.4757072z"></path>
</svg>