<svg viewBox="0 0 1024 1024" version="1.1" width="64" height="64" xmlns="http://www.w3.org/2000/svg" xmlns:xlink="http://www.w3.org/1999/xlink">
  <path d="M642.23055013 258.01159111H232.50918717c-71.45851259 0-129.58328098 58.12476839-129.583281 129.58328099v409.72136296c0 71.45851259 58.12476839 129.58328098 129.583281 129.58328099h409.72136296c71.45851259 0 129.58328098-58.12476839 129.58328098-129.58328099V387.5948721c0-71.45851259-58.12476839-129.58328098-129.58328098-129.58328099z m49.96917728 539.17519013c0 27.57366518-22.3955121 49.96917728-49.96917728 49.96917728H232.50918717c-27.57366518 0-49.96917728-22.3955121-49.9691773-49.96917728V387.5948721c0-27.57366518 22.3955121-49.96917728 49.9691773-49.96917728h409.72136296c27.57366518 0 49.96917728 22.3955121 49.96917728 49.96917728v409.59190914z" p-id="1086"></path><path d="M926.77006222 654.26975605V247.26692347h-0.12945383v-10.74466766c0-73.01195852-59.41930667-132.43126518-132.43126519-132.4312652H373.22549728c-1.29453827 0-2.45962272 0.12945383-3.75416098 0.12945384h-0.9061768c-1.03563061-0.12945383-2.07126124-0.12945383-3.3657995-0.12945384-22.52496592 0-40.77795555 18.25298963-40.77795555 40.77795556 0 22.3955121 18.25298963 40.64850173 40.64850172 40.77795556l11.65084444 0.12945382h417.61804642c27.96202667 0 50.74590025 22.78387358 50.74590025 50.74590026v417.74750024c0 2.33016889 0 4.53088395 0.12945383 6.73159901 0 2.20071506 0.12945383 4.40143013 0.12945383 6.60214519 0.12945383 22.26605827 18.38244347 40.5190479 40.77795556 40.5190479 22.52496592 0 40.77795555-18.25298963 40.77795555-40.77795556 0-1.16508445-0.12945383-2.71853037-0.25890766-4.01306864v-1.29453826c0-2.97743803 0.12945383-5.43706075 0.12945383-7.76722964z"></path>
</svg>