<svg viewBox="0 0 1024 1024" version="1.1" xmlns="http://www.w3.org/2000/svg" xmlns:xlink="http://www.w3.org/1999/xlink" width="64" height="64">
  <path d="M873.60714297 90.125a60.26785702 60.26785702 0 0 1 60.26785703 60.26785702v723.21428595a60.26785702 60.26785702 0 0 1-60.26785702 60.26785703H150.39285703a60.26785702 60.26785702 0 0 1-60.26785703-60.26785703V150.39285703a60.26785702 60.26785702 0 0 1 60.26785702-60.26785703h723.21428595z m-30.13392892 60.26785702h-662.94642811a30.13392892 30.13392892 0 0 0-29.65178594 24.7098219L150.39285703 180.52678595v662.9464281a30.13392892 30.13392892 0 0 0 24.70982189 29.65178595L180.52678595 873.60714297h662.9464281a30.13392892 30.13392892 0 0 0 29.65178595-24.70982189L873.60714297 843.47321405v-662.9464281a30.13392892 30.13392892 0 0 0-30.13392892-30.13392892z m-542.41071405 482.14285703a30.13392892 30.13392892 0 0 1 30.13392892 30.13392892v30.1339281h30.1339281a30.13392892 30.13392892 0 0 1 1e-8 60.26785786H331.19642893v30.1339281a30.13392892 30.13392892 0 0 1-60.26785785 0V753.07142893h-30.1339281a30.13392892 30.13392892 0 0 1 0-60.26785785H270.92857107v-30.1339281a30.13392892 30.13392892 0 0 1 30.13392893-30.13392892z m60.26785702-120.53571405a30.13392892 30.13392892 0 0 1 0 60.26785702h-120.53571404a30.13392892 30.13392892 0 0 1 0-60.26785702h120.53571405z m421.87500001 0a30.13392892 30.13392892 0 0 1-1e-8 60.26785702h-301.33928594a30.13392892 30.13392892 0 0 1 0-60.26785702h301.33928595z m-421.87500001-120.53571405a30.13392892 30.13392892 0 0 1 1e-8 60.26785702h-120.53571405a30.13392892 30.13392892 0 0 1 0-60.26785702h120.53571405z m421.87500001 0a30.13392892 30.13392892 0 0 1-1e-8 60.26785702h-301.33928594a30.13392892 30.13392892 0 0 1 0-60.26785702h301.33928595z m-421.87500001-120.53571488a30.13392892 30.13392892 0 0 1 1e-8 60.26785785h-120.53571405a30.13392892 30.13392892 0 0 1 0-60.26785785h120.53571405z m421.87500001 0a30.13392892 30.13392892 0 0 1-1e-8 60.26785785h-301.33928594a30.13392892 30.13392892 0 0 1 0-60.26785785h301.33928595z"></path>
</svg>