<svg viewBox="0 0 1024 1024" width="64" height="64" version="1.1" xmlns="http://www.w3.org/2000/svg" xmlns:xlink="http://www.w3.org/1999/xlink" >
  <path fill="#333" d="M388.6235 130.094l241.1235 0 0 28.971L388.6235 159.065 388.6235 130.094 388.6235 130.094 388.6235 130.094M930.5 159.065l0-28.971-181.3095 0 0 28.971 152.3385 0 0 139.815L115.721 298.88 115.721 159.065l152.3385 0 0-28.971L86.75 130.094l0 28.971 0 0 0 744.309 0 0 0 28.971L930.5 932.345l0-28.971 0 0L930.5 159.065 930.5 159.065 930.5 159.065 930.5 159.065M115.721 903.3785L115.721 327.671l785.808 0 0 575.7075L115.721 903.3785 115.721 903.3785 115.721 903.3785M313.478 80l28.9755 0 0 148.4145-28.9755 0L313.478 80 313.478 80 313.478 80M675.9215 80l28.971 0 0 148.4145-28.971 0L675.9215 80 675.9215 80 675.9215 80M313.109 532.3445l0 32.5215c22.8015-13.644 41.4945-27.846 56.448-42.804l0 235.89 34.209 0L403.766 463.931l-20.5605 0C365.0705 490.2875 341.7065 513.0935 313.109 532.3445L313.109 532.3445 313.109 532.3445M683.3915 630.6605c-2.799-10.8405-7.47-21.681-13.6395-32.526-6.3585-10.8405-16.2585-19.4355-29.907-25.605-13.644-6.165-27.8505-9.72-42.8085-10.278-14.7645-0.5625-30.8385 3.177-47.8485 11.025 5.607-18.126 11.3985-42.804 17.01-73.458l109.341 0 0-30.843-135.135 0c-19.4355 91.2195-30.2805 140.1885-32.526 147.105l28.971 3.3615c9.1575-12.5235 20.745-20.5605 35.1405-23.922 14.2065-3.366 27.1035-3.366 38.5065 0 11.403 3.3615 20.745 10.278 28.224 20.5605 7.4745 10.278 11.403 22.8015 11.9655 37.5705 0.558 14.769-1.6875 28.2195-6.921 40.1895-5.0445 11.961-13.644 21.681-25.605 29.1555-11.961 7.479-27.6615 9.3465-47.106 5.9805-19.4355-3.3615-33.084-20.556-41.121-51.4035l-30.843 8.5995c5.6025 27.288 16.2585 46.7325 31.59 58.131 15.327 11.403 31.5945 17.757 48.7845 18.8775 17.01 1.1205 32.157-0.936 45.2385-5.9805s24.2955-11.961 33.273-20.5605c9.1575-8.595 15.8895-19.4355 20.5605-32.526 4.4865-13.0815 7.101-25.9785 7.659-38.5065C687.32 653.2775 686.195 641.5055 683.3915 630.6605L683.3915 630.6605 683.3915 630.6605M683.3915 630.6605L683.3915 630.6605z"></path>
</svg>