<svg viewBox="0 0 1024 1024" width="64" height="64" version="1.1"  xmlns="http://www.w3.org/2000/svg" xmlns:xlink="http://www.w3.org/1999/xlink" >
  <path fill="#333" d="M856.53048889 756.27292445l-100.25756444 100.25870222h-56.6021689l156.86087112-156.86087112v56.6021689z m0 73.68021333v26.57848889h-26.57735111l26.57848889-26.57848889z m0-203.96259556L625.99168 856.53162667H569.38951111l246.09336889-246.09450667h41.04874667v15.55342222z m-114.72782222-15.55342222L495.70702222 856.53162667h-56.60103111l246.09336889-246.09450667h56.60216889z m-130.33244445 0L365.37799111 856.53162667h-56.60103111l246.09336889-246.09450667h56.60216889z m-130.28124444 0L235.09560889 856.53162667h-56.60216889l246.09450667-246.09450667h56.60103111z m-130.28238223 0L167.46951111 793.87534222v-56.05944889l127.37877334-127.37877333h56.1095111z m-129.7408 0l-53.69742222 53.69856v-53.69856h53.69856z m635.36583112-370.96106667L731.66279111 364.34375111h-56.60103111l181.46986667-181.46986666v56.60216888z m0 73.68021334v51.18748444h-51.18862222l51.18862222-51.18748444z m-58.27584-145.68789334L601.38154667 364.34375111H544.77937778l196.87537777-196.87537778h56.60103112z m-130.28124445 0L471.09916445 364.34375111h-56.60103112l196.87424-196.87537778h56.60216889z m-130.38023111 0L340.71893333 364.34375111h-56.60216888l196.87537777-196.87537778h56.60216889z m-130.23345778 0L210.48547555 364.34375111H167.46951111v-13.53500444l183.34037334-183.34037334h56.6010311z m-130.28238222 0l-109.61009778 109.61009778v-56.05944889l53.55064889-53.55064889h56.10951111zM69.03125333 462.78087111h885.93749334V512H69.03125333v-49.21912889z"></path>
</svg>