<svg viewBox="0 0 1024 1024" version="1.1" xmlns="http://www.w3.org/2000/svg" xmlns:xlink="http://www.w3.org/1999/xlink" width="64" height="64">
  <path d="M864.11440947 926.25224651h-704.22881894A62.13783703 62.13783703 0 0 1 97.74775349 864.11440947v-662.80359465A62.13783703 62.13783703 0 0 1 159.88559053 139.17297778h704.22881894A62.13783703 62.13783703 0 0 1 926.25224651 201.31081482v662.80359465a62.13783703 62.13783703 0 0 1-62.13783704 62.13783704zM159.88559053 180.59820206a20.71261275 20.71261275 0 0 0-20.71261275 20.71261276v662.80359465a20.71261275 20.71261275 0 0 0 20.71261275 20.71261275h704.22881894a20.71261275 20.71261275 0 0 0 20.71261275-20.71261275v-662.80359465a20.71261275 20.71261275 0 0 0-20.71261275-20.71261276z" fill="#333"></path>
  <path d="M926.25224651 429.14955022H97.74775349V201.31081482A62.13783703 62.13783703 0 0 1 159.88559053 139.17297778h704.22881894A62.13783703 62.13783703 0 0 1 926.25224651 201.31081482zM139.17297778 387.72432592h745.65404444V201.31081482a20.71261275 20.71261275 0 0 0-20.71261275-20.71261276h-704.22881894a20.71261275 20.71261275 0 0 0-20.71261275 20.71261276z" fill="#333"></path>
  <path d="M723.47342899 229.76614193a23.56635051 23.56635051 0 0 1 16.68497583 6.88137328l1.17831706 1.27258291 65.42018818 65.42018819a23.56635051 23.56635051 0 0 1 0 33.36995166 23.56635051 23.56635051 0 0 1-33.36995167 1e-8L723.47342899 286.65531048l-50.00779525 50.0549275a23.56635051 23.56635051 0 0 1-33.36995167 0 23.56635051 23.56635051 0 0 1 0-33.36995167l66.73990333-66.6927711a23.56635051 23.56635051 0 0 1 16.63784359-6.88137328z" fill="#333"></path>
</svg>