<svg viewBox="0 0 1024 1024" width="64" height="64" version="1.1" xmlns="http://www.w3.org/2000/svg" xmlns:xlink="http://www.w3.org/1999/xlink">
  <path file="#333" d="M785.06666667 102.4H238.93333333A136.53333333 136.53333333 0 0 0 102.4 238.93333333v546.13333334A136.53333333 136.53333333 0 0 0 238.93333333 921.6h546.13333334a136.53333333 136.53333333 0 0 0 136.53333333-136.53333333V238.93333333A136.53333333 136.53333333 0 0 0 785.06666667 102.4zM866.98666667 785.06666667a81.92 81.92 0 0 1-81.92 81.92H238.93333333A81.92 81.92 0 0 1 157.01333333 785.06666667V238.93333333A81.92 81.92 0 0 1 238.93333333 157.01333333h546.13333334A81.92 81.92 0 0 1 866.98666667 238.93333333z"></path>
  <path fill="#333" d="M716.8 321.536H307.2a25.6 25.6 0 0 0 0 51.2h409.6a25.6 25.6 0 0 0 0-51.2zM307.2 541.184h204.8a25.6 25.6 0 0 0 0-51.2H307.2a25.6 25.6 0 0 0 0 51.2zM716.8 658.432H307.2a25.6 25.6 0 1 0 0 51.2h409.6a25.6 25.6 0 0 0 0-51.2z"></path>
</svg>