<svg viewBox="0 0 1024 1024" version="1.1" xmlns="http://www.w3.org/2000/svg" xmlns:xlink="http://www.w3.org/1999/xlink" width="128" height="128">
  <path d="M921.6 871.53777813c4.55111147 27.30666667-13.65333333 50.06222187-40.96 50.06222187h-728.17777813c-27.30666667 0-50.06222187-18.2044448-50.06222187-45.51111147s22.7555552-45.51111147 50.06222187-45.5111104h719.07555626c22.7555552-4.55111147 45.51111147 13.65333333 50.06222187 40.96zM352.71111147 352.71111147L466.48888853 238.93333333v455.11111147c0 27.30666667 18.2044448 45.51111147 45.51111147 45.5111104s45.51111147-18.2044448 45.51111147-45.5111104V238.93333333l113.77777706 113.77777814c18.2044448 18.2044448 45.51111147 18.2044448 63.71555627 0 18.2044448-18.2044448 18.2044448-45.51111147 0-63.71555627l-163.84-159.28888853c-9.10222187-18.2044448-36.40888853-27.30666667-59.1644448-27.30666667h-4.55111147c-22.7555552 0-40.96 9.10222187-59.16444373 27.30666667L288.9955552 288.9955552c-18.2044448 18.2044448-18.2044448 45.51111147 0 63.71555627 18.2044448 18.2044448 45.51111147 18.2044448 63.71555627 0z"></path>
</svg>