<svg viewBox="0 0 1024 1024" version="1.1" xmlns="http://www.w3.org/2000/svg" xmlns:xlink="http://www.w3.org/1999/xlink" width="64" height="64">
  <path fill="#333" d="M953.17050781 729.82460937l-351.37353515-209.05664062c-12.89882812-7.66142578-21.21679688-1.89755859-18.46757813 12.8390625l74.728125 404.41816406c2.75009766 14.73574219 11.98476562 16.76865234 20.56289063 4.52021485 0 0 47.74746094-68.43867187 86.90976562-110.22363282l79.37841797 118.21464844c4.84628906 7.20263672 14.67158203 9.10371094 21.81005859 4.12558594l37.39658204-25.86884766c7.20263672-4.978125 9.10283203-14.934375 4.18886718-22.20205078l-79.24394531-118.01865234c50.23125-20.83007813 121.15986328-38.38007812 121.15986328-38.38007813 14.47734375-3.60263672 15.78603516-12.77050781 2.95048828-20.36777344z m0 1e-8"></path>
  <path fill="#333" d="M962 139.34375c0-38.83271484-31.47978516-70.3125-70.3125-70.3125H132.3125C93.47978516 69.03125 62 100.51103516 62 139.34375v720.703125c0 38.83271484 31.47978516 70.3125 70.3125 70.3125h424.51347656v-72.0703125H184.33320312C151.71962891 858.2890625 134.0703125 840.86650391 134.0703125 808.53242187V190.85820313C134.0703125 158.52412109 151.71962891 141.1015625 184.33320312 141.1015625h655.33447266C872.28037109 141.1015625 889.9296875 158.52412109 889.9296875 190.85820313v375.61816406h71.19316406"></path>
  <path fill="#333" d="M519.49091797 894.62304688a36.03515625 36.03515625 0 1 0 72.0703125-1e-8 36.03515625 36.03515625 0 1 0-72.0703125 0zM889.05253906 566.11425781a36.03515625 36.03515625 0 1 0 72.0703125 0 36.03515625 36.03515625 0 1 0-72.0703125 0z"></path>
</svg>