<svg viewBox="0 0 1024 1024" width="64" height="64" version="1.1" xmlns="http://www.w3.org/2000/svg" xmlns:xlink="http://www.w3.org/1999/xlink">
  <path fill="#333" d="M508.21982422 76.73574219c-238.21259766 0-432 193.78740234-432 432s193.78740234 432 432 432 432-193.78740234 432-432-193.78740234-432-432-432zM508.21982422 904.73574219c-218.35195312 0-396-177.64804688-396-396s177.64804688-396 396-396 396 177.64804688 396 396-177.64804688 396-396 396z"></path>
  <path fill="#333" d="M353.21591797 508.73574219c0 85.60634766 69.39755859 155.00478516 155.00478516 155.00478515 85.60634766 0 155.00478516-69.39755859 155.00478515-155.00478515 0-85.60634766-69.39755859-155.00478516-155.00478516-155.00478516-85.60634766 0-155.00478516 69.39755859-155.00478515 155.00478516z"></path>
</svg>