<svg viewBox="0 0 1024 1024" width="64" height="64" version="1.1" xmlns="http://www.w3.org/2000/svg" xmlns:xlink="http://www.w3.org/1999/xlink">
  <path d="M585.3734375 511.9878125l286.4259375-286.37625c20.2659375-20.2396875 20.2659375-53.09625 0.0253125-73.36125-20.265-20.2659375-53.1215625-20.2659375-73.3865625 0L512.01125 438.6265625 225.635 152.1996875c-20.2659375-20.2659375-53.0953125-20.2659375-73.36125 0-20.265 20.2396875-20.265 53.0953125-0.0253125 73.36125L438.65 511.9878125 152.1978125 798.389375c-20.2659375 20.240625-20.2659375 53.0953125 0 73.3603125 10.1325 10.134375 23.4065625 15.1996875 36.6796875 15.1996875 13.2740625 0 26.548125-5.0653125 36.680625-15.1996875l286.426875-286.37625L798.3875 871.80125C808.5209375 881.9346875 821.7940625 887 835.068125 887s26.5471875-5.0653125 36.6796875-15.19875c20.266875-20.240625 20.266875-53.09625 0.02625-73.36125L585.3734375 511.9878125Z"></path>
</svg>