<svg class="icon" viewBox="0 0 1024 1024" version="1.1" xmlns="http://www.w3.org/2000/svg" width="64" height="64" xmlns:xlink="http://www.w3.org/1999/xlink">
  <path fill="#333" d="M70.13093663 246.87856197v662.80359506h883.73812674V246.87856197H70.13093663z m839.5512204 618.61668873H114.31784297V291.0654683h795.36431406v574.4297824z"></path>
  <path fill="#333" d="M432.46356859 560.60559698c17.67476253-13.2560719 39.7682157-22.09345317 61.86166888-22.09345317 26.51214381 0 39.7682157 17.67476253 39.7682157 48.60559696l-57.44297824 8.83738127c-44.18690634 4.41869063-61.86166887 26.51214381-61.86166886 61.86166887 0 17.67476253 4.41869063 30.93083443 17.67476252 39.7682157 8.83738127 8.83738127 26.51214381 13.2560719 44.18690634 13.25607191 26.51214381 0 44.18690634-13.2560719 57.44297824-35.34952507v30.93083443h35.34952507v-123.72333775c0-48.60559698-22.09345317-70.69905013-70.69905014-70.69905013-26.51214381 0-48.60559698 4.41869063-66.28035951 17.67476253v30.93083445z m101.62988458 66.28035949c0 17.67476253-4.41869063 26.51214381-13.2560719 39.76821571-8.83738127 8.83738127-22.09345317 17.67476253-35.34952508 17.67476254-8.83738127 0-17.67476253-4.41869063-26.5121438-8.83738127-4.41869063-4.41869063-8.83738127-13.2560719-8.83738126-22.09345316s4.41869063-17.67476253 8.83738126-22.09345318c4.41869063-4.41869063 17.67476253-8.83738127 30.93083444-13.25607191l44.18690634-4.41869061v13.25607188zM321.99630275 706.42238788h35.34952507V467.81309366h79.53643141v-30.93083443H246.87856197v30.93083443h75.11774078zM657.81679091 679.91024409c13.2560719 22.09345317 30.93083443 30.93083443 57.44297824 30.93083443 26.51214381 0 48.60559698-8.83738127 61.86166888-26.5121438s22.09345317-44.18690634 22.09345317-75.11774079-8.83738127-53.02428761-22.09345317-70.69905012-30.93083443-26.51214381-53.02428761-26.51214381c-30.93083443 0-48.60559698 13.2560719-66.28035951 35.34952507V423.62618732h-35.34952506v282.79620056h35.34952506v-26.51214379z m0-79.53643141c0-17.67476253 4.41869063-35.34952507 17.67476254-44.18690634 8.83738127-13.2560719 26.51214381-17.67476253 39.7682157-17.67476253 17.67476253 0 30.93083443 4.41869063 39.76821571 17.67476253 8.83738127 13.2560719 13.2560719 26.51214381 13.25607189 48.60559697 0 26.51214381-4.41869063 44.18690634-13.25607189 57.44297824-8.83738127 13.2560719-22.09345317 22.09345317-44.18690634 22.09345317-13.2560719 0-26.51214381-4.41869063-39.7682157-17.67476254s-13.2560719-22.09345317-13.25607191-39.76821571V600.37381268zM70.13093663 114.31784297h309.30834435v44.18690633H70.13093663z"></path>
</svg>