<svg class="icon" viewBox="0 0 1024 1024" version="1.1" xmlns="http://www.w3.org/2000/svg" xmlns:xlink="http://www.w3.org/1999/xlink" width="64" height="64">
  <path d="M572.38084289 722.9362352L572.38084289 391.47103101c0-38.62768579 60.34627304-38.62768579 60.34627304 0l0 331.46520419C632.72711593 761.56813645 572.38084289 761.56813645 572.38084289 722.9362352L572.38084289 722.9362352 572.38084289 722.9362352zM391.28806168 722.9362352L391.28806168 391.47103101c0-38.62768579 60.37409783-38.62768579 60.37409784 0l0 331.46520419C451.66131577 761.56813645 391.28806168 761.56813645 391.28806168 722.9362352L391.28806168 722.9362352 391.28806168 722.9362352zM904.36881777 240.79843737L753.47446787 240.79843737l-1e-8-60.28893676c0-49.91362729-40.57879999-90.38365769-89.6113059-90.38365769L361.11323889 90.12584292c-49.99372915 0-90.54470435 40.47087332-90.54470434 90.38365769l0 60.28893676L119.67334089 240.79843737c-38.68502124 0-38.68502124 60.2366597 0 60.2366597l784.69547607 0C943.02517129 301.03509707 943.02517129 240.79843737 904.36881777 240.79843737L904.36881777 240.79843737 904.36881777 240.79843737zM330.94178864 180.50865769c0-16.00858328 14.13841388-30.14699798 30.1706065-30.14699799l302.74992307 0c16.0338793 0 29.23805182 12.24716556 29.23805181 30.14699799l0 60.28893676L330.94178864 240.79759362 330.94178864 180.50865769 330.94178864 180.50865769zM723.27603574 933.875L300.73914104 933.875c-49.96590436 0-90.51687954-40.46665704-90.51687954-90.37944141L210.2222615 391.47103101c0-17.89983243 14.13841388-30.14615506 30.17060651-30.14615506 16.0364089 0 30.17482278 12.24632181 30.17482279 30.14615506l0 452.02368383c0 15.97654302 14.16623868 30.11411398 30.1706065 30.11411399l422.53689469 0c16.03219263 0 30.19843131-14.13757095 30.1984313-30.11411399L753.47362494 392.40442945c0-39.56108423 60.34627304-39.56108423 60.34627304 0l0 451.09028539C813.8207409 893.40834296 773.26976572 933.875 723.27603574 933.875L723.27603574 933.875zM723.27603574 933.875"></path>
</svg>